<svg xmlns="http://www.w3.org/2000/svg" viewBox="0 0 1200 420" role="img" aria-labelledby="title desc">
  <title id="title">BAYC feature banner</title>
  <desc id="desc">A dark NFT mosaic banner with BAYC lettering and a skull badge in the center.</desc>
  <defs>
    <linearGradient id="bg" x1="0" x2="1" y1="0" y2="1">
      <stop offset="0" stop-color="#171717"/>
      <stop offset="1" stop-color="#111111"/>
    </linearGradient>
    <linearGradient id="tile1" x1="0" x2="1">
      <stop offset="0" stop-color="#5d422d"/>
      <stop offset="1" stop-color="#8e6b47"/>
    </linearGradient>
    <linearGradient id="tile2" x1="0" x2="1">
      <stop offset="0" stop-color="#314658"/>
      <stop offset="1" stop-color="#6d879b"/>
    </linearGradient>
    <linearGradient id="tile3" x1="0" x2="1">
      <stop offset="0" stop-color="#84492d"/>
      <stop offset="1" stop-color="#c88d2f"/>
    </linearGradient>
    <linearGradient id="tile4" x1="0" x2="1">
      <stop offset="0" stop-color="#6f2932"/>
      <stop offset="1" stop-color="#a64a53"/>
    </linearGradient>
    <filter id="shadow" x="-20%" y="-20%" width="140%" height="140%">
      <feDropShadow dx="0" dy="16" stdDeviation="18" flood-color="#000" flood-opacity="0.35"/>
    </filter>
  </defs>
  <rect width="1200" height="420" rx="32" fill="url(#bg)"/>
  <g opacity="0.92">
    <g>
      <rect x="24" y="24" width="180" height="118" rx="18" fill="url(#tile1)"/>
      <rect x="212" y="24" width="180" height="118" rx="18" fill="url(#tile2)"/>
      <rect x="400" y="24" width="180" height="118" rx="18" fill="url(#tile3)"/>
      <rect x="588" y="24" width="180" height="118" rx="18" fill="url(#tile4)"/>
      <rect x="776" y="24" width="180" height="118" rx="18" fill="url(#tile2)"/>
      <rect x="964" y="24" width="212" height="118" rx="18" fill="url(#tile1)"/>
    </g>
    <g>
      <rect x="24" y="150" width="140" height="118" rx="18" fill="url(#tile4)"/>
      <rect x="172" y="150" width="140" height="118" rx="18" fill="url(#tile3)"/>
      <rect x="320" y="150" width="140" height="118" rx="18" fill="url(#tile1)"/>
      <rect x="468" y="150" width="140" height="118" rx="18" fill="url(#tile2)"/>
      <rect x="616" y="150" width="140" height="118" rx="18" fill="url(#tile3)"/>
      <rect x="764" y="150" width="140" height="118" rx="18" fill="url(#tile1)"/>
      <rect x="912" y="150" width="264" height="118" rx="18" fill="url(#tile4)"/>
    </g>
    <g>
      <rect x="24" y="276" width="180" height="118" rx="18" fill="url(#tile2)"/>
      <rect x="212" y="276" width="180" height="118" rx="18" fill="url(#tile1)"/>
      <rect x="400" y="276" width="180" height="118" rx="18" fill="url(#tile4)"/>
      <rect x="588" y="276" width="180" height="118" rx="18" fill="url(#tile3)"/>
      <rect x="776" y="276" width="180" height="118" rx="18" fill="url(#tile2)"/>
      <rect x="964" y="276" width="212" height="118" rx="18" fill="url(#tile1)"/>
    </g>
  </g>
  <g opacity="0.14" fill="#fff">
    <circle cx="98" cy="84" r="32"/>
    <circle cx="286" cy="84" r="32"/>
    <circle cx="474" cy="84" r="32"/>
    <circle cx="662" cy="84" r="32"/>
    <circle cx="850" cy="84" r="32"/>
    <circle cx="1058" cy="84" r="32"/>
    <circle cx="94" cy="210" r="26"/>
    <circle cx="242" cy="210" r="26"/>
    <circle cx="390" cy="210" r="26"/>
    <circle cx="538" cy="210" r="26"/>
    <circle cx="686" cy="210" r="26"/>
    <circle cx="834" cy="210" r="26"/>
    <circle cx="1038" cy="210" r="26"/>
  </g>
  <g filter="url(#shadow)">
    <text x="308" y="228" text-anchor="middle" font-family="Georgia, 'Times New Roman', serif" font-size="104" font-weight="700" fill="#ffffff">B</text>
    <text x="446" y="228" text-anchor="middle" font-family="Georgia, 'Times New Roman', serif" font-size="104" font-weight="700" fill="#ffffff">A</text>
    <text x="756" y="228" text-anchor="middle" font-family="Georgia, 'Times New Roman', serif" font-size="104" font-weight="700" fill="#ffffff">Y</text>
    <text x="892" y="228" text-anchor="middle" font-family="Georgia, 'Times New Roman', serif" font-size="104" font-weight="700" fill="#ffffff">C</text>
  </g>
  <g transform="translate(600 210)" filter="url(#shadow)">
    <rect x="-50" y="-50" width="100" height="100" rx="22" fill="#fff7ea"/>
    <g transform="translate(0 1)" fill="none" stroke="#1d1d1d" stroke-width="4.5" stroke-linecap="round" stroke-linejoin="round">
      <path d="M-14 -22h28l15 14v22L11 34h-22L-29 14V-8z"/>
      <circle cx="-12" cy="-2" r="5"/>
      <circle cx="12" cy="-2" r="5"/>
      <path d="M-9 12h18l6 11h-30z"/>
      <path d="M-18 28h36"/>
    </g>
  </g>
</svg>
