<svg xmlns="http://www.w3.org/2000/svg" viewBox="0 0 800 800" role="img" aria-labelledby="title desc">
  <title id="title">MAYC poster</title>
  <desc id="desc">Mutant Ape Yacht Club inspired local cover art card.</desc>
  <defs>
    <linearGradient id="bg" x1="0" x2="1" y1="0" y2="1">
      <stop offset="0" stop-color="#d9f0cb"/>
      <stop offset="1" stop-color="#8db06d"/>
    </linearGradient>
  </defs>
  <rect width="800" height="800" rx="60" fill="url(#bg)"/>
  <circle cx="400" cy="310" r="172" fill="#88a26c"/>
  <path d="M270 303c0-96 71-155 130-155 73 0 129 51 129 145 0 86-58 146-129 146-75 0-130-56-130-136z" fill="#95b875"/>
  <ellipse cx="334" cy="314" rx="48" ry="60" fill="#d1dcb9"/>
  <ellipse cx="468" cy="314" rx="48" ry="60" fill="#d1dcb9"/>
  <ellipse cx="403" cy="349" rx="128" ry="108" fill="#a6c583"/>
  <ellipse cx="403" cy="374" rx="76" ry="58" fill="#dcebc8"/>
  <ellipse cx="362" cy="334" rx="18" ry="13" fill="#1d2619"/>
  <ellipse cx="444" cy="334" rx="18" ry="13" fill="#1d2619"/>
  <rect x="318" y="162" width="170" height="74" rx="14" fill="#1f251e"/>
  <text x="403" y="210" text-anchor="middle" font-family="Arial, sans-serif" font-size="34" font-weight="700" fill="#f4f0e7">MAYC</text>
  <rect x="170" y="564" width="460" height="92" rx="24" fill="rgba(21,28,20,0.82)"/>
  <text x="400" y="615" text-anchor="middle" font-family="Georgia, serif" font-size="64" font-weight="700" fill="#fff9ed">MAYC</text>
  <text x="400" y="655" text-anchor="middle" font-family="Arial, sans-serif" font-size="24" letter-spacing="6" fill="#dce8ca">MUTANT APE YACHT CLUB</text>
</svg>
