<svg xmlns="http://www.w3.org/2000/svg" viewBox="0 0 800 800" role="img" aria-labelledby="title desc">
  <title id="title">Milady poster</title>
  <desc id="desc">Milady inspired local cover art card.</desc>
  <defs>
    <linearGradient id="bg" x1="0" x2="1" y1="0" y2="1">
      <stop offset="0" stop-color="#ebe3ff"/>
      <stop offset="1" stop-color="#bcb0f1"/>
    </linearGradient>
  </defs>
  <rect width="800" height="800" rx="60" fill="url(#bg)"/>
  <circle cx="400" cy="286" r="148" fill="#1d2138"/>
  <path d="M280 305c0-91 54-152 120-152s120 61 120 152c0 72-49 134-120 134s-120-62-120-134z" fill="#f7ebf4"/>
  <path d="M264 285c20-102 90-165 136-165 48 0 109 61 135 165-35-31-79-49-135-49-54 0-98 16-136 49z" fill="#1f223c"/>
  <ellipse cx="352" cy="302" rx="18" ry="15" fill="#1c2233"/>
  <ellipse cx="448" cy="302" rx="18" ry="15" fill="#1c2233"/>
  <path d="M365 355c18 16 52 16 70 0" fill="none" stroke="#c28ba4" stroke-width="8" stroke-linecap="round"/>
  <path d="M244 192h312l-38 64H282z" fill="#f3f1fb"/>
  <rect x="154" y="560" width="492" height="96" rx="24" fill="rgba(38,34,74,0.8)"/>
  <text x="400" y="618" text-anchor="middle" font-family="Georgia, serif" font-size="60" font-weight="700" fill="#fff8ff">MILADY</text>
  <text x="400" y="656" text-anchor="middle" font-family="Arial, sans-serif" font-size="22" letter-spacing="5" fill="#dfd7ff">MILADY MAKER</text>
</svg>
